<svg 
 xmlns="http://www.w3.org/2000/svg"
 xmlns:xlink="http://www.w3.org/1999/xlink"
 width="1024px" height="1024px">
<path fill-rule="evenodd"  fill="none"
 d="M-0.000,-0.000 L1024.000,-0.000 L1024.000,1024.000 L-0.000,1024.000 L-0.000,-0.000 Z"/>
<path fill-rule="evenodd"  fill="rgb(255, 255, 255)"
 d="M757.485,737.012 L757.485,288.008 L848.335,288.008 L848.335,646.487 L995.014,646.487 L995.014,737.012 L757.485,737.012 ZM433.587,288.008 L524.437,288.008 L524.437,646.487 L671.116,646.487 L671.116,737.012 L433.587,737.012 L433.587,288.008 ZM255.846,633.813 L144.187,633.813 L122.362,737.012 L29.990,737.012 L147.232,288.008 L255.846,288.008 L373.088,737.012 L277.670,737.012 L255.846,633.813 ZM230.469,512.510 C220.318,467.851 210.674,414.140 200.524,368.274 L198.493,368.274 C189.358,415.347 179.207,467.851 169.564,512.510 L161.443,550.531 L238.589,550.531 L230.469,512.510 Z"/>
</svg>