<svg 
 xmlns="http://www.w3.org/2000/svg"
 xmlns:xlink="http://www.w3.org/1999/xlink"
 width="28px" height="24px">
<path fill-rule="evenodd"
 d="M18.683,23.000 L14.986,18.149 L16.217,17.044 L18.603,18.468 L26.145,12.995 L27.017,14.095 L18.683,23.000 ZM18.782,16.372 C19.832,14.849 20.449,13.003 20.449,11.012 C20.449,5.788 16.218,1.553 11.000,1.553 C5.782,1.553 1.551,5.788 1.551,11.012 C1.551,15.013 4.034,18.431 7.540,19.813 C7.625,20.436 7.707,21.013 7.786,21.545 C3.279,20.168 0.000,15.974 0.000,11.012 C0.000,4.930 4.925,0.000 11.000,0.000 C17.075,0.000 22.000,4.930 22.000,11.012 C22.000,12.183 21.804,13.305 21.466,14.364 L18.782,16.372 ZM11.000,13.554 C12.785,13.554 13.678,14.315 13.678,15.839 C13.678,16.064 13.660,16.319 13.649,16.563 L12.983,17.179 L13.537,17.929 C13.515,18.127 13.502,18.310 13.474,18.518 C13.227,20.467 13.008,21.886 12.817,22.775 C12.642,23.591 12.036,23.999 11.000,23.999 C9.964,23.999 9.359,23.591 9.183,22.775 C8.992,21.886 8.773,20.467 8.526,18.518 C8.390,17.521 8.322,16.628 8.322,15.839 C8.322,14.315 9.215,13.554 11.000,13.554 ZM13.538,10.024 C13.538,11.427 12.402,12.565 11.000,12.565 C9.598,12.565 8.461,11.427 8.461,10.024 C8.461,8.620 9.598,7.482 11.000,7.482 C12.402,7.482 13.538,8.620 13.538,10.024 ZM7.204,17.153 C5.084,15.866 3.667,13.534 3.667,10.871 C3.667,6.816 6.950,3.530 11.000,3.530 C15.050,3.530 18.333,6.816 18.333,10.871 C18.333,13.179 17.266,15.236 15.601,16.582 L14.872,16.133 C14.888,15.909 14.914,15.666 14.924,15.452 C16.149,14.366 16.923,12.779 16.923,11.012 C16.923,7.737 14.271,5.082 11.000,5.082 C7.729,5.082 5.077,7.737 5.077,11.012 C5.077,12.779 5.851,14.365 7.076,15.452 C7.100,15.990 7.143,16.557 7.204,17.153 ZM14.807,19.646 L15.759,20.934 C15.262,21.173 14.748,21.382 14.213,21.545 C14.293,21.013 14.375,20.436 14.460,19.813 C14.580,19.766 14.689,19.698 14.807,19.646 Z"/>
</svg>