<?xml version="1.0" encoding="utf-8"?>
<!-- Generator: Adobe Illustrator 24.0.1, SVG Export Plug-In . SVG Version: 6.00 Build 0)  -->
<svg version="1.1" id="图层_1" xmlns="http://www.w3.org/2000/svg" xmlns:xlink="http://www.w3.org/1999/xlink" x="0px" y="0px"
	 viewBox="0 0 24 18" style="enable-background:new 0 0 24 18;" xml:space="preserve">
<style type="text/css">
	.st0{fill-rule:evenodd;clip-rule:evenodd;fill:#FFFFFF;}
</style>
<path class="st0" d="M19.5,5.1c-0.2-0.7-0.7-1.2-1.4-1.4C16.9,3.4,12,3.4,12,3.4s-4.9,0-6.1,0.3C5.3,3.9,4.7,4.4,4.5,5.1
	C4.2,6.4,4.2,9,4.2,9s0,2.6,0.3,3.9c0.2,0.7,0.7,1.2,1.4,1.4c1.2,0.3,6.1,0.3,6.1,0.3s4.9,0,6.1-0.3c0.7-0.2,1.2-0.7,1.4-1.4
	c0.3-1.3,0.3-3.9,0.3-3.9S19.8,6.4,19.5,5.1z M10.4,11.4V6.6L14.5,9L10.4,11.4z"/>
</svg>
