<svg 
 xmlns="http://www.w3.org/2000/svg"
 xmlns:xlink="http://www.w3.org/1999/xlink"
 width="868px" height="490px">
<path fill-rule="evenodd"  fill="rgb(255, 255, 255)"
 d="M710.182,410.965 L710.182,331.933 C753.762,331.933 789.091,296.550 789.091,252.902 C789.091,209.254 753.762,173.870 710.182,173.870 C668.652,173.870 634.384,206.022 631.273,246.818 L631.273,490.000 L552.364,490.000 L552.364,134.358 C552.364,112.534 570.028,94.842 591.818,94.842 C607.829,94.842 621.581,104.410 627.767,118.134 C651.756,103.380 679.963,94.839 710.182,94.839 C797.342,94.839 868.000,165.606 868.000,252.902 C868.000,340.198 797.342,410.965 710.182,410.965 ZM434.000,252.903 L434.000,213.387 C434.000,191.564 416.338,173.873 394.551,173.871 L394.541,173.871 C372.753,173.873 355.091,191.564 355.091,213.387 L355.091,252.903 L355.091,410.968 L276.182,410.968 L276.182,252.903 L276.182,213.387 C276.182,191.564 258.520,173.873 236.732,173.871 L236.723,173.871 C214.935,173.873 197.273,191.564 197.273,213.387 L197.273,252.903 L197.273,410.968 L118.364,410.968 L118.364,173.871 C118.364,172.507 118.433,171.159 118.567,169.830 C120.681,128.072 155.054,94.839 197.273,94.839 L434.000,94.839 C476.218,94.839 510.592,128.072 512.706,169.830 C512.840,171.159 512.909,172.507 512.909,173.871 L512.909,410.968 L434.000,410.968 L434.000,252.903 ZM0.000,134.356 C0.000,112.532 17.665,94.839 39.455,94.839 C61.245,94.839 78.909,112.532 78.909,134.356 L78.909,410.968 L0.000,410.968 L0.000,134.356 ZM39.455,79.032 C17.664,79.032 0.000,61.340 0.000,39.516 C0.000,17.692 17.664,-0.000 39.455,-0.000 C61.245,-0.000 78.909,17.692 78.909,39.516 C78.909,61.340 61.245,79.032 39.455,79.032 Z"/>
</svg>