<svg 
 xmlns="http://www.w3.org/2000/svg"
 xmlns:xlink="http://www.w3.org/1999/xlink"
 class="podcast-srcollbar-icon"
 width="36px" height="36px">
<path fill-rule="evenodd"  fill="rgb(211, 114, 248)"
 d="M18.000,36.000 C8.059,36.000 0.000,27.941 0.000,18.000 C0.000,8.059 8.059,0.000 18.000,0.000 C27.941,0.000 36.000,8.059 36.000,18.000 C36.000,27.941 27.941,36.000 18.000,36.000 ZM15.526,24.518 C15.773,26.467 15.992,27.886 16.183,28.775 C16.359,29.591 16.964,29.999 18.000,29.999 C19.036,29.999 19.642,29.591 19.817,28.775 C20.008,27.886 20.227,26.467 20.474,24.518 C20.610,23.512 20.678,22.619 20.678,21.839 C20.678,20.315 19.785,19.553 18.000,19.553 C16.215,19.553 15.322,20.315 15.322,21.839 C15.322,22.628 15.390,23.521 15.526,24.518 ZM21.924,21.452 C21.900,21.987 21.857,22.555 21.795,23.153 C23.916,21.866 25.333,19.534 25.333,16.871 C25.333,12.816 22.050,9.529 18.000,9.529 C13.950,9.529 10.667,12.816 10.667,16.871 C10.667,19.534 12.084,21.866 14.204,23.153 C14.143,22.557 14.100,21.990 14.076,21.452 C12.851,20.365 12.077,18.780 12.077,17.012 C12.077,13.737 14.729,11.082 18.000,11.082 C21.271,11.082 23.923,13.737 23.923,17.012 C23.923,18.780 23.149,20.365 21.924,21.452 ZM15.462,16.023 C15.462,17.427 16.598,18.565 18.000,18.565 C19.402,18.565 20.538,17.427 20.538,16.023 C20.538,14.620 19.402,13.482 18.000,13.482 C16.598,13.482 15.462,14.620 15.462,16.023 ZM18.000,6.000 C11.925,6.000 7.000,10.930 7.000,17.012 C7.000,21.974 10.279,26.168 14.786,27.545 C14.707,27.013 14.625,26.436 14.540,25.813 C11.034,24.431 8.551,21.013 8.551,17.012 C8.551,11.788 12.782,7.553 18.000,7.553 C23.218,7.553 27.449,11.788 27.449,17.012 C27.449,21.013 24.966,24.431 21.460,25.813 C21.375,26.436 21.293,27.013 21.213,27.545 C25.721,26.168 29.000,21.974 29.000,17.012 C29.000,10.930 24.075,6.000 18.000,6.000 Z"/>
</svg>