<svg 
 xmlns="http://www.w3.org/2000/svg"
 xmlns:xlink="http://www.w3.org/1999/xlink"
 width="1024px" height="1024px">
<path fill-rule="evenodd"  fill="none"
 d="M-0.000,-0.000 L1024.000,-0.000 L1024.000,1024.000 L-0.000,1024.000 L-0.000,-0.000 Z"/>
<path fill-rule="evenodd"  fill="rgb(255, 255, 255)"
 d="M932.011,252.948 C917.867,260.735 875.409,276.336 835.906,280.217 C861.265,266.537 898.814,221.748 908.094,186.140 C883.695,201.779 827.657,224.476 800.024,224.476 L800.024,224.514 C768.461,191.571 724.035,171.002 674.758,171.002 C579.077,171.002 501.474,248.542 501.474,344.155 C501.474,357.411 503.012,370.386 505.857,382.797 L505.831,382.797 C376.010,379.403 234.051,314.376 148.584,203.099 C96.033,293.986 141.508,395.067 201.136,431.903 C180.730,433.440 143.149,429.546 125.462,412.308 C124.282,472.633 153.302,552.556 259.154,581.555 C238.768,592.531 202.674,589.367 186.986,587.048 C192.497,637.960 263.864,704.550 341.897,704.550 C314.083,736.686 209.441,795.002 92.008,776.442 C171.758,824.934 264.710,853.009 363.096,853.009 C642.677,853.009 859.798,626.588 848.102,347.268 C848.057,346.959 848.057,346.652 848.031,346.333 C848.057,345.602 848.102,344.884 848.102,344.155 C848.102,343.271 848.031,342.452 847.999,341.605 C873.461,324.213 907.600,293.448 932.011,252.948 Z"/>
</svg>