<svg 
 xmlns="http://www.w3.org/2000/svg"
 xmlns:xlink="http://www.w3.org/1999/xlink"
 width="1024px" height="1024px">
<path fill-rule="evenodd"  fill="none"
 d="M-0.000,-0.000 L1024.000,-0.000 L1024.000,1024.000 L-0.000,1024.000 L-0.000,-0.000 Z"/>
<path fill-rule="evenodd"  fill="rgb(255, 255, 255)"
 d="M851.574,793.427 C850.766,793.937 849.105,794.981 849.105,794.981 L875.037,876.017 L777.963,826.685 C777.963,826.685 774.929,827.597 773.397,828.000 C746.688,835.430 718.105,839.455 688.416,839.455 C540.010,839.455 419.697,739.216 419.697,615.562 C419.697,491.924 540.010,391.707 688.416,391.707 C836.746,391.707 957.016,491.924 957.016,615.562 C957.016,688.081 915.649,752.522 851.574,793.427 ZM594.111,502.698 C573.388,502.698 556.602,518.925 556.602,538.954 C556.602,559.015 573.388,575.283 594.111,575.283 C614.834,575.283 631.641,559.015 631.641,538.954 C631.641,518.925 614.834,502.698 594.111,502.698 ZM781.072,502.698 C760.349,502.698 743.565,518.925 743.565,538.954 C743.565,559.015 760.349,575.283 781.072,575.283 C801.837,575.283 818.621,559.015 818.621,538.954 C818.621,518.925 801.837,502.698 781.072,502.698 ZM396.523,613.316 C396.523,635.198 400.102,656.410 406.622,676.567 C399.537,676.959 392.432,677.219 385.241,677.219 C350.044,677.219 316.179,672.470 284.541,663.700 C282.729,663.191 279.129,662.145 279.129,662.145 L164.078,720.520 L194.843,624.569 C194.843,624.569 192.905,623.354 191.913,622.734 C115.960,574.303 67.010,497.968 67.010,412.114 C67.010,265.678 209.459,146.986 385.241,146.986 C544.437,146.986 676.330,244.370 699.787,371.561 C695.344,371.343 690.913,371.253 686.385,371.253 C526.338,371.253 396.523,479.635 396.523,613.316 ZM274.316,277.736 C249.720,277.736 229.787,297.112 229.787,321.039 C229.787,344.940 249.720,364.347 274.316,364.347 C298.942,364.347 318.897,344.940 318.897,321.039 C318.897,297.112 298.942,277.736 274.316,277.736 ZM495.818,277.736 C471.191,277.736 451.260,297.112 451.260,321.039 C451.260,344.940 471.191,364.347 495.818,364.347 C520.445,364.347 540.366,344.940 540.366,321.039 C540.366,297.112 520.445,277.736 495.818,277.736 Z"/>
</svg>