<svg 
 xmlns="http://www.w3.org/2000/svg"
 xmlns:xlink="http://www.w3.org/1999/xlink"
 width="1024px" height="1024px">
<path fill-rule="evenodd"  fill="none"
 d="M-0.000,-0.000 L1024.000,-0.000 L1024.000,1024.000 L-0.000,1024.000 L-0.000,-0.000 Z"/>
<path fill-rule="evenodd"  fill="rgb(255, 255, 255)"
 d="M930.951,443.026 C930.929,445.822 930.498,448.506 929.841,451.122 C929.807,451.189 929.807,451.286 929.807,451.343 L929.762,451.343 C925.912,466.378 912.407,477.542 896.196,477.542 C876.961,477.542 861.406,461.929 861.406,442.674 C861.406,441.318 861.644,440.013 861.791,438.702 L861.383,438.635 C863.399,427.713 864.406,416.474 864.406,405.264 C864.406,304.631 782.747,222.753 682.342,222.753 C663.107,222.753 647.540,207.123 647.540,187.873 C647.540,168.618 663.107,153.004 682.342,153.004 C821.114,153.004 933.996,266.171 933.996,405.264 C933.996,417.904 932.830,430.545 930.951,443.026 ZM682.342,323.676 C666.333,323.676 653.348,310.661 653.348,294.616 C653.348,278.556 666.333,265.559 682.342,265.559 C759.212,265.559 821.725,328.214 821.725,405.264 C821.725,409.700 821.295,414.024 820.899,418.358 C820.899,418.647 821.081,418.902 821.081,419.215 C821.081,419.810 820.753,420.310 820.729,420.877 C820.651,421.597 820.684,422.380 820.605,423.112 L820.299,423.049 C818.330,437.205 806.725,448.273 792.076,448.273 C776.069,448.273 763.082,435.276 763.082,419.215 C763.082,418.023 763.626,416.985 763.762,415.834 L763.082,415.742 C763.514,412.316 763.728,408.821 763.728,405.264 C763.728,360.274 727.218,323.676 682.342,323.676 ZM702.821,408.027 C741.743,447.037 709.229,500.757 709.229,500.757 C709.229,500.757 693.096,518.640 726.313,525.091 C759.642,531.774 864.371,580.405 806.725,703.324 C749.102,826.021 559.034,885.744 418.178,874.704 C284.318,864.129 112.204,819.559 94.431,657.211 C94.431,657.211 85.023,583.696 156.154,488.514 C156.154,488.514 258.460,345.353 377.603,304.494 C496.882,263.827 510.794,332.645 510.794,373.312 C504.444,407.823 492.579,428.116 537.342,414.165 C537.342,414.165 654.560,359.656 702.821,408.027 ZM428.592,496.531 C288.790,502.981 175.772,578.073 175.772,671.700 C175.772,765.209 288.790,835.468 428.592,828.915 C568.531,822.538 681.753,734.754 681.753,641.257 C681.753,547.852 568.531,490.057 428.592,496.531 ZM314.058,769.793 C274.910,748.506 276.336,706.689 276.336,706.689 C276.336,706.689 260.102,574.686 400.710,558.177 C541.542,541.803 566.709,676.597 523.859,732.009 C481.032,787.408 396.339,814.442 314.058,769.793 ZM362.897,661.761 C336.644,664.501 317.839,687.461 317.839,709.360 C317.839,731.389 338.998,746.554 365.252,743.463 C391.403,740.479 412.698,720.213 412.698,698.292 C412.698,676.285 393.056,658.879 362.897,661.761 ZM455.481,645.864 C450.804,638.081 439.971,635.851 429.555,643.601 C420.532,650.153 418.698,662.641 423.611,670.452 C428.310,678.424 439.246,679.371 448.145,672.727 C456.828,665.812 460.201,653.835 455.481,645.864 Z"/>
</svg>