<svg 
 xmlns="http://www.w3.org/2000/svg"
 xmlns:xlink="http://www.w3.org/1999/xlink"
 width="24px" height="18px">
<path fill-rule="evenodd"  fill="rgb(255, 255, 255)"
 d="M22.864,3.378 C22.600,2.373 21.840,1.589 20.866,1.317 C19.093,0.816 11.999,0.816 11.999,0.816 C11.999,0.816 4.905,0.816 3.131,1.298 C2.179,1.567 1.395,2.376 1.133,3.378 C0.666,5.207 0.666,9.000 0.666,9.000 C0.666,9.000 0.666,12.814 1.133,14.624 C1.397,15.628 2.157,16.412 3.131,16.685 C4.923,17.185 11.998,17.185 11.998,17.185 C11.998,17.185 19.093,17.185 20.867,16.704 C21.840,16.431 22.600,15.647 22.864,14.643 C23.331,12.814 23.331,9.020 23.331,9.020 C23.331,9.020 23.350,5.207 22.864,3.378 ZM9.740,12.506 L9.740,5.496 L15.639,9.001 L9.740,12.506 Z"/>
</svg>